<svg width="256" height="64" viewBox="0 0 256 64" fill="none" xmlns="http://www.w3.org/2000/svg" role="img" aria-labelledby="mychatLogoTitle mychatLogoDesc">
  <title id="mychatLogoTitle">Mychat</title>
  <desc id="mychatLogoDesc">Mychat brand mark with a glowing M chat glyph and wordmark.</desc>
  <defs>
    <linearGradient id="mychatGlow" x1="12" y1="8" x2="56" y2="56" gradientUnits="userSpaceOnUse">
      <stop stop-color="#7DD3FC"/>
      <stop offset="0.52" stop-color="#60A5FA"/>
      <stop offset="1" stop-color="#8B5CF6"/>
    </linearGradient>
    <linearGradient id="mychatWord" x1="76" y1="18" x2="220" y2="52" gradientUnits="userSpaceOnUse">
      <stop stop-color="#F8FAFF"/>
      <stop offset="1" stop-color="#A5B4FC"/>
    </linearGradient>
    <filter id="mychatBlur" x="0" y="0" width="72" height="72" filterUnits="userSpaceOnUse" color-interpolation-filters="sRGB">
      <feFlood flood-opacity="0" result="BackgroundImageFix"/>
      <feBlend mode="normal" in="SourceGraphic" in2="BackgroundImageFix" result="shape"/>
      <feGaussianBlur stdDeviation="4" result="effect1_foregroundBlur"/>
    </filter>
  </defs>
  <rect x="6" y="6" width="52" height="52" rx="18" fill="#0F172A"/>
  <rect x="6.75" y="6.75" width="50.5" height="50.5" rx="17.25" stroke="rgba(255,255,255,0.16)"/>
  <g filter="url(#mychatBlur)" opacity="0.42">
    <path d="M20 44V20.5C20 19.67 20.67 19 21.5 19H24.1C24.57 19 25.01 19.22 25.3 19.6L32.2 28.7C32.72 29.39 33.78 29.39 34.3 28.7L41.2 19.6C41.49 19.22 41.93 19 42.4 19H45C45.83 19 46.5 19.67 46.5 20.5V44" stroke="url(#mychatGlow)" stroke-width="5.5" stroke-linecap="round" stroke-linejoin="round"/>
  </g>
  <path d="M20 44V20.5C20 19.67 20.67 19 21.5 19H24.1C24.57 19 25.01 19.22 25.3 19.6L32.2 28.7C32.72 29.39 33.78 29.39 34.3 28.7L41.2 19.6C41.49 19.22 41.93 19 42.4 19H45C45.83 19 46.5 19.67 46.5 20.5V44" stroke="url(#mychatGlow)" stroke-width="4.5" stroke-linecap="round" stroke-linejoin="round"/>
  <path d="M68.3828 45V20.3457H78.2617L83.8555 36.1045L89.4844 20.3457H99.293V45H92.3984V28.3691L86.5586 45H80.9766L75.207 28.334V45H68.3828Z" fill="url(#mychatWord)"/>
  <path d="M108.773 45.3516C106.859 45.3516 105.174 44.9961 103.719 44.2852C102.264 43.5508 101.131 42.5352 100.32 41.2383C99.5078 39.9414 99.1016 38.4512 99.1016 36.7676C99.1016 35.0605 99.5312 33.5586 100.391 32.2617C101.25 30.9414 102.441 29.9141 103.965 29.1797C105.514 28.4453 107.279 28.0781 109.266 28.0781C111.109 28.0781 112.729 28.4219 114.121 29.1094C115.535 29.7969 116.633 30.7773 117.414 32.0508C118.195 33.3242 118.586 34.8262 118.586 36.5566C118.586 36.9551 118.562 37.3301 118.516 37.6816C118.492 38.0332 118.457 38.3262 118.41 38.5605H105.82C106.008 39.4824 106.453 40.1699 107.152 40.623C107.863 41.0762 108.715 41.3027 109.711 41.3027C110.516 41.3027 111.262 41.1797 111.949 40.9336C112.637 40.6641 113.312 40.2461 113.977 39.6797L117.355 43.0234C116.375 43.875 115.254 44.5273 113.988 44.9805C112.738 45.4336 111 45.3516 108.773 45.3516ZM105.738 35.0059H112.23C112.16 34.1777 111.855 33.5137 111.316 33.0137C110.797 32.5137 110.109 32.2637 109.254 32.2637C108.449 32.2637 107.773 32.502 107.223 32.9785C106.691 33.4551 106.195 34.1309 105.738 35.0059Z" fill="url(#mychatWord)"/>
  <path d="M121.941 51.9844C120.973 51.9844 120.055 51.8613 119.188 51.6152C118.32 51.3926 117.582 51.0762 116.973 50.666L119.117 46.0938C119.492 46.3516 119.91 46.5625 120.371 46.7266C120.848 46.9141 121.301 47.0078 121.73 47.0078C122.277 47.0078 122.73 46.8906 123.09 46.6562C123.465 46.4453 123.801 46.0762 124.098 45.5488L116.219 28.4297H123.781L127.969 38.9531L132.051 28.4297H139.438L132.156 45.1621C131.133 47.5293 129.924 49.2773 128.531 50.4062C127.156 51.4414 124.959 51.9844 121.941 51.9844Z" fill="url(#mychatWord)"/>
  <path d="M148.246 45.3516C146.238 45.3516 144.461 44.9961 142.91 44.2852C141.379 43.5508 140.184 42.5352 139.324 41.2383C138.48 39.918 138.059 38.416 138.059 36.7324C138.059 35.0488 138.48 33.5586 139.324 32.2617C140.184 30.9414 141.379 29.9141 142.91 29.1797C144.461 28.4453 146.238 28.0781 148.246 28.0781C149.578 28.0781 150.887 28.3066 152.176 28.7637C153.473 29.2207 154.566 29.8789 155.461 30.7344L151.613 34.582C151.191 34.1406 150.738 33.8184 150.254 33.6113C149.77 33.4043 149.266 33.3008 148.738 33.3008C148.066 33.3008 147.457 33.4473 146.91 33.7402C146.379 34.0098 145.961 34.4023 145.656 34.916C145.352 35.4062 145.199 36.002 145.199 36.7031C145.199 37.4043 145.352 38.0117 145.656 38.5254C145.961 39.0156 146.379 39.4082 146.91 39.7031C147.457 39.9727 148.066 40.1074 148.738 40.1074C149.312 40.1074 149.844 39.998 150.336 39.7793C150.828 39.5605 151.289 39.2148 151.719 38.7422L155.531 42.6602C154.566 43.5625 153.43 44.2617 152.117 44.7598C150.801 45.1133 149.516 45.3516 148.246 45.3516Z" fill="url(#mychatWord)"/>
  <path d="M167.961 45.3516C166.148 45.3516 164.531 44.9668 163.109 44.1973C161.707 43.4277 160.609 42.3848 159.812 41.0684C159.031 39.7285 158.641 38.2344 158.641 36.5859C158.641 34.9141 159.031 33.4199 159.812 32.1035C160.609 30.7637 161.707 29.7207 163.109 28.9746C164.531 28.2285 166.148 27.8555 167.961 27.8555C169.773 27.8555 171.379 28.2285 172.781 28.9746C174.203 29.7207 175.301 30.7578 176.078 32.0859C176.875 33.3906 177.273 34.8848 177.273 36.5684C177.273 38.2285 176.875 39.7285 176.078 41.0684C175.301 42.3848 174.203 43.4277 172.781 44.1973C171.379 44.9668 169.773 45.3516 167.961 45.3516ZM167.961 40.1777C168.555 40.1777 169.09 40.0312 169.562 39.7383C170.055 39.4219 170.445 39.0117 170.734 38.5078C171.023 37.9805 171.168 37.3496 171.168 36.6152C171.168 35.8809 171.023 35.2676 170.734 34.7754C170.445 34.2598 170.055 33.8555 169.562 33.5625C169.09 33.2461 168.555 33.0879 167.961 33.0879C167.367 33.0879 166.82 33.2461 166.32 33.5625C165.844 33.8555 165.461 34.2598 165.172 34.7754C164.887 35.2676 164.746 35.8809 164.746 36.6152C164.746 37.3496 164.887 37.9805 165.172 38.5078C165.461 39.0117 165.844 39.4219 166.32 39.7383C166.82 40.0312 167.367 40.1777 167.961 40.1777Z" fill="url(#mychatWord)"/>
  <path d="M182.227 45V20.3457H188.875V29.1094C189.391 28.6875 189.984 28.3535 190.656 28.1074C191.344 27.8613 192.074 27.7383 192.848 27.7383C194.918 27.7383 196.531 28.3535 197.684 29.584C198.852 30.791 199.438 32.5391 199.438 34.8281V45H192.789V36.0645C192.789 35.1387 192.582 34.4395 192.168 33.9668C191.754 33.4707 191.168 33.2227 190.41 33.2227C189.629 33.2227 189.012 33.4824 188.559 34.002C188.117 34.5215 187.895 35.2266 187.895 36.1172V45H182.227Z" fill="url(#mychatWord)"/>
  <path d="M211.652 45.3516C209.375 45.3516 207.617 44.7988 206.379 43.6934C205.156 42.5645 204.547 40.8926 204.547 38.6777V33.6348H201.652V28.4297H204.547V23.8203H211.16V28.4297H215.594V33.6348H211.16V37.7754C211.16 38.3848 211.305 38.8613 211.594 39.2051C211.902 39.5488 212.332 39.7207 212.883 39.7207C213.145 39.7207 213.41 39.6855 213.68 39.6152C213.965 39.5215 214.238 39.3926 214.5 39.2285L215.594 44.5039C215.02 44.8086 214.324 45.043 213.504 45.207C212.688 45.3047 212.07 45.3516 211.652 45.3516Z" fill="url(#mychatWord)"/>
</svg>
